# xmcd CD database file
#
# Track frame offsets:
#	180
#	11179
#	33844
#	44837
#	61776
#	76095
#	89161
#	104511
#	117918
#	131173
#	151636
#	158894
#	178091
#	192829
#	205833
#	226853
#	238854
#	264052
#	283955
#	290085
#	303301
#
# Disc length: 4339 seconds
#
# Revision: 0
# Processed by: cddbd v1.5.1PL2 Copyright (c) Steve Scherf et al.
# Submitted via: CDex 1.51
#
DISCID=2810f115
DTITLE=Björn Colell - A Liuto Solo - Dt.Lautenmusik des 18 Jh.
DYEAR=1900
DGENRE=Gitarre
TTITLE0=Björn Colell - Weiss  -Fantasia c-Moll
TTITLE1=Björn Colell - Falkenhagen -Sonate g-Moll Largo
TTITLE2=Björn Colell - Falkenhagen -Sonate g-Moll Allegro Un Poco
TTITLE3=Björn Colell - Falkenhagen -Sonate g-Moll A Tempo Giusto
TTITLE4=Björn Colell - David Kellner-Fatasie in C-Dur
TTITLE5=Björn Colell - David Kellner -Fatasie in d-Moll
TTITLE6=Björn Colell - Weiss -Sonate A-Dur Allemande
TTITLE7=Björn Colell - Weiss -Sonate A-Dur Bourré
TTITLE8=Björn Colell - Weiss -Sonate A-Dur Courante
TTITLE9=Björn Colell - Weiss -Sonate A-Dur Sarabande
TTITLE10=Björn Colell - Weiss -Sonate A-Dur Menuet
TTITLE11=Björn Colell - Weiss -Sonate A-Dur Ciacona
TTITLE12=Björn Colell - Weiss -Sonate A-Dur Gigue
TTITLE13=Björn Colell - Hagen -Sonate d-Moll Adagio
TTITLE14=Björn Colell - Hagen -Sonate d-Moll  Allegro Ma Non Tanto
TTITLE15=Björn Colell - Hagen -Sonate d-Moll Allegro Moderato
TTITLE16=Björn Colell - Straube -Sonate G-Dur Un Poco Allegro
TTITLE17=Björn Colell - Straube -Sonate G-Dur Siciliano
TTITLE18=Björn Colell - Straube -Sonate G-Dur Minuetto
TTITLE19=Björn Colell - Straube -Sonate G-Dur Poloneso
TTITLE20=Björn Colell - Weiss -Ciacona g-Moll
EXTD=
EXTT0=
EXTT1=
EXTT2=
EXTT3=
EXTT4=
EXTT5=
EXTT6=
EXTT7=
EXTT8=
EXTT9=
EXTT10=
EXTT11=
EXTT12=
EXTT13=
EXTT14=
EXTT15=
EXTT16=
EXTT17=
EXTT18=
EXTT19=
EXTT20=
PLAYORDER=
